<?xml version="1.0" standalone="no"?><!DOCTYPE svg PUBLIC "-//W3C//DTD SVG 1.1//EN" "http://www.w3.org/Graphics/SVG/1.1/DTD/svg11.dtd"><svg t="1640420217906" class="icon" viewBox="0 0 1024 1024" version="1.1" xmlns="http://www.w3.org/2000/svg" p-id="5968" xmlns:xlink="http://www.w3.org/1999/xlink" width="200" height="200"><defs><style type="text/css"></style></defs><path d="M548.224 558.592h59.648c14.336 0 26.069333 13.952 26.069333 31.018667 0 17.066667-11.733333 30.976-26.069333 30.976h-67.029333v77.098666c0 12.117333-13.952 22.016-31.018667 22.016-17.066667 0-30.976-9.898667-30.976-22.016v-77.098666H412.074667c-14.336 0-26.069333-13.952-26.069334-30.976 0-17.066667 11.733333-31.018667 26.069334-31.018667h61.866666L359.253333 443.946667c-14.250667-14.293333-16.042667-35.84-4.010666-47.872 12.074667-12.074667 33.621333-10.24 47.872 4.010666l107.946666 107.946667 107.989334-107.946667c14.250667-14.250667 35.84-16.085333 47.872-4.010666 12.032 12.032 10.24 33.578667-4.053334 47.872l-114.645333 114.645333z" p-id="5969" fill="#ffffff"></path><path d="M274.944 844.629333a98.56 98.56 0 0 0 39.338667-41.984A332.586667 332.586667 0 0 0 512 867.413333a332.544 332.544 0 0 0 185.429333-56.149333c10.581333 16.981333 26.197333 30.506667 44.8 38.442667A389.504 389.504 0 0 1 512 924.586667a389.546667 389.546667 0 0 1-237.056-79.957334zM154.453333 692.437333a389.888 389.888 0 0 1-33.706666-159.104c0-182.314667 124.672-335.488 293.418666-378.922666a97.706667 97.706667 0 0 0 12.330667 55.893333 334.208 334.208 0 0 0-222.165333 453.461333c-19.456 4.394667-36.693333 14.592-49.877334 28.672z m708.693334 13.653334a98.474667 98.474667 0 0 0-45.525334-37.632A334.208 334.208 0 0 0 597.504 210.346667a97.706667 97.706667 0 0 0 12.330667-55.893334c168.746667 43.434667 293.418667 196.608 293.418666 378.922667a389.674667 389.674667 0 0 1-40.106666 172.757333z" p-id="5970" fill="#ffffff"></path><path d="M512 288.853333a126.72 126.72 0 1 1 0-253.44 126.72 126.72 0 0 1 0 253.44z m0-57.173333a69.546667 69.546667 0 1 0 0-139.093333 69.546667 69.546667 0 0 0 0 139.093333zM780.8 886.186667a126.72 126.72 0 1 1 0-253.44 126.72 126.72 0 0 1 0 253.44z m0-57.173334a69.546667 69.546667 0 1 0 0-139.093333 69.546667 69.546667 0 0 0 0 139.093333zM226.133333 886.186667a126.72 126.72 0 1 1 0-253.44 126.72 126.72 0 0 1 0 253.44z m0-57.173334a69.546667 69.546667 0 1 0 0-139.093333 69.546667 69.546667 0 0 0 0 139.093333z" p-id="5971" fill="#ffffff"></path></svg>