<?xml version="1.0" standalone="no"?><!DOCTYPE svg PUBLIC "-//W3C//DTD SVG 1.1//EN" "http://www.w3.org/Graphics/SVG/1.1/DTD/svg11.dtd"><svg t="1640420177079" class="icon" viewBox="0 0 1024 1024" version="1.1" xmlns="http://www.w3.org/2000/svg" p-id="4987" xmlns:xlink="http://www.w3.org/1999/xlink" width="200" height="200"><defs><style type="text/css"></style></defs><path d="M617.376 457.376l45.248 45.248L512 653.248l-150.624-150.624 45.248-45.248L512 562.72z" fill="#ffffff" p-id="4988"></path><path d="M384 448v64H288a96 96 0 0 0-95.84 90.368L192 608v128h96v160H224v-96h-96v-192a160 160 0 0 1 153.056-159.84L288 448h96zM320 128a128 128 0 1 0 0 256 128 128 0 0 0 0-256z m0 64a64 64 0 1 1 0 128 64 64 0 0 1 0-128zM736 448a160 160 0 0 1 159.84 153.056L896 608v192h-96v96h-64v-160h96v-128a96 96 0 0 0-90.368-95.84L736 512h-96V448h96zM704 128a128 128 0 1 0 0 256 128 128 0 0 0 0-256z m0 64a64 64 0 1 1 0 128 64 64 0 0 1 0-128z" fill="#ffffff" p-id="4989"></path><path d="M384 480m-32 0a32 32 0 1 0 64 0 32 32 0 1 0-64 0Z" fill="#ffffff" p-id="4990"></path><path d="M640 480m-32 0a32 32 0 1 0 64 0 32 32 0 1 0-64 0Z" fill="#ffffff" p-id="4991"></path><path d="M352 448h45.248L512 562.72 626.752 448H684.8v64h-31.552L512 653.248 370.72 512H352z" fill="#ffffff" p-id="4992"></path></svg>